SplineFontDB: 3.2
FontName: FelineseHeavy
FullName: Felinese Heavy
FamilyName: Felinese Heavy
Weight: Heavy
Copyright: (c) 2019 Kawa.
Version: 001.000
ItalicAngle: 0
UnderlinePosition: -103
UnderlineWidth: 51
Ascent: 768
Descent: 256
InvalidEm: 0
sfntRevision: 0x00010000
LayerCount: 2
Layer: 0 1 "Back" 1
Layer: 1 1 "Fore" 0
XUID: [1021 539 157326795 18330]
FSType: 0
OS2Version: 3
OS2_WeightWidthSlopeOnly: 0
OS2_UseTypoMetrics: 1
CreationTime: 1421261332
ModificationTime: 1615570196
PfmFamily: 33
TTFWeight: 600
TTFWidth: 5
LineGap: 92
VLineGap: 0
Panose: 2 0 6 3 0 0 0 0 0 0
OS2TypoAscent: 768
OS2TypoAOffset: 0
OS2TypoDescent: -256
OS2TypoDOffset: 0
OS2TypoLinegap: 92
OS2WinAscent: 768
OS2WinAOffset: 0
OS2WinDescent: 256
OS2WinDOffset: 0
HheadAscent: 704
HheadAOffset: 0
HheadDescent: 0
HheadDOffset: 0
OS2SubXSize: 665
OS2SubYSize: 716
OS2SubXOff: 0
OS2SubYOff: 143
OS2SupXSize: 665
OS2SupYSize: 716
OS2SupXOff: 0
OS2SupYOff: 491
OS2StrikeYSize: 51
OS2StrikeYPos: 265
OS2Vendor: '2ttf'
OS2CodePages: 00000001.00000000
OS2UnicodeRanges: 00000003.00000000.00000000.00000000
Lookup: 4 0 1 "'liga' Standard Ligatures in Latin lookup 0" { "'liga' Standard Ligatures in Latin lookup 0-1"  } ['liga' ('DFLT' <'dflt' > 'latn' <'dflt' > ) ]
Lookup: 258 0 0 "'kern' Horizontal Kerning in Latin lookup 1" { "Numerals" [153,15,0] "Connect low" [153,15,0] "Connect high" [153,15,0] "Empty low" [153,15,0] "Empty high" [153,15,0] "Empty middle" [153,15,0] "Empty middle 2" [153,15,0] "Impromptu" [153,15,0] } ['kern' ('DFLT' <'dflt' > 'latn' <'dflt' > ) ]
MarkAttachClasses: 1
DEI: 91125
KernClass2: 1+ 2 "Empty middle 2"
 39 k u v w uniE130 uniE13D uniE13E uniE13F
 40 o s t ae uniE121 uniE136 uniE13A uniE13B
 0 {} -64 {}
KernClass2: 1+ 2 "Empty middle"
 39 a b d e uniE120 uniE124 uniE126 uniE127
 39 k u v w uniE130 uniE13D uniE13E uniE13F
 0 {} -96 {}
KernClass2: 1+ 2 "Empty high"
 19 b s uniE124 uniE13A
 73 C d h o s t thorn uniE125 uniE126 uniE12B uniE136 uniE13A uniE13B uniE13C
 0 {} -96 {}

StartChar: exclam
Encoding: 33 33 4
Width: 384
Flags: W
LayerCount: 2
Fore
SplineSet
104 161 m 128,-1,1
 104 124 104 124 130 98 c 128,-1,2
 156 72 156 72 194 72 c 128,-1,3
 232 72 232 72 258 98 c 128,-1,4
 284 124 284 124 284 161 c 128,-1,5
 284 198 284 198 258 224 c 128,-1,6
 232 250 232 250 194 250 c 128,-1,7
 156 250 156 250 130 224 c 128,-1,0
 104 198 104 198 104 161 c 128,-1,1
32 159 m 128,-1,9
 32 225 32 225 79 272 c 128,-1,10
 126 319 126 319 192 319 c 128,-1,11
 258 319 258 319 305 272 c 128,-1,12
 352 225 352 225 352 159 c 128,-1,13
 352 93 352 93 305 46 c 128,-1,14
 258 -1 258 -1 192 -1 c 128,-1,15
 126 -1 126 -1 79 46 c 128,-1,8
 32 93 32 93 32 159 c 128,-1,9
EndSplineSet
Validated: 1
EndChar

StartChar: comma
Encoding: 44 44 5
Width: 192
Flags: W
LayerCount: 2
Fore
SplineSet
32 256 m 1,0,-1
 160 256 l 1,1,-1
 160 0 l 1,2,-1
 32 0 l 1,3,-1
 32 256 l 1,0,-1
EndSplineSet
Validated: 1
EndChar

StartChar: period
Encoding: 46 46 6
Width: 192
Flags: W
LayerCount: 2
Fore
SplineSet
32 0 m 5,0,-1
 32 128 l 5,1,-1
 160 128 l 5,2,-1
 160 0 l 5,3,-1
 32 0 l 5,0,-1
EndSplineSet
Validated: 1
EndChar

StartChar: zero
Encoding: 48 48 7
Width: 512
Flags: W
LayerCount: 2
Fore
SplineSet
96 377 m 128,-1,1
 96 309 96 309 144 261 c 128,-1,2
 192 213 192 213 260 213 c 128,-1,3
 328 213 328 213 376 261 c 128,-1,4
 424 309 424 309 424 377 c 128,-1,5
 424 445 424 445 376 493 c 128,-1,6
 328 541 328 541 260 541 c 128,-1,7
 192 541 192 541 144 493 c 128,-1,0
 96 445 96 445 96 377 c 128,-1,1
0 379 m 128,-1,9
 0 486 0 486 75 562 c 128,-1,10
 150 638 150 638 256 638 c 128,-1,11
 362 638 362 638 437 562 c 128,-1,12
 512 486 512 486 512 379 c 128,-1,13
 512 272 512 272 437 196 c 128,-1,14
 362 120 362 120 256 120 c 128,-1,15
 150 120 150 120 75 196 c 128,-1,8
 0 272 0 272 0 379 c 128,-1,9
EndSplineSet
Validated: 1
EndChar

StartChar: one
Encoding: 49 49 8
Width: 448
Flags: W
LayerCount: 2
Fore
SplineSet
0 320 m 1,0,-1
 0 448 l 1,1,-1
 192 448 l 1,2,-1
 192 576 l 1,3,-1
 320 576 l 1,4,-1
 320 448 l 1,5,-1
 448 448 l 1,6,-1
 448 320 l 1,7,-1
 0 320 l 1,0,-1
EndSplineSet
Validated: 1
EndChar

StartChar: two
Encoding: 50 50 9
Width: 448
Flags: W
LayerCount: 2
Fore
SplineSet
192 128 m 1,0,-1
 192 256 l 1,1,-1
 320 256 l 1,2,-1
 320 128 l 1,3,-1
 192 128 l 1,0,-1
0 320 m 1,4,-1
 0 448 l 1,5,-1
 448 448 l 1,6,-1
 448 320 l 1,7,-1
 0 320 l 1,4,-1
192 512 m 5,8,-1
 192 640 l 5,9,-1
 320 640 l 5,10,-1
 320 512 l 5,11,-1
 192 512 l 5,8,-1
EndSplineSet
Validated: 1
EndChar

StartChar: three
Encoding: 51 51 10
Width: 448
Flags: W
LayerCount: 2
Fore
SplineSet
128 128 m 1,0,-1
 128 256 l 1,1,-1
 320 256 l 1,2,-1
 320 128 l 1,3,-1
 128 128 l 1,0,-1
0 320 m 1,4,-1
 0 448 l 1,5,-1
 192 448 l 1,6,-1
 192 704 l 1,7,-1
 256 704 l 1,8,-1
 320 704 l 1,9,-1
 320 448 l 1,10,-1
 448 448 l 1,11,-1
 448 320 l 1,12,-1
 0 320 l 1,4,-1
EndSplineSet
Validated: 1
EndChar

StartChar: four
Encoding: 52 52 11
Width: 448
Flags: W
LayerCount: 2
Fore
SplineSet
128 128 m 1,0,-1
 128 256 l 1,1,-1
 320 256 l 1,2,-1
 320 128 l 1,3,-1
 128 128 l 1,0,-1
0 320 m 1,4,-1
 0 448 l 1,5,-1
 192 448 l 1,6,-1
 192 576 l 1,7,-1
 64 576 l 1,8,-1
 64 704 l 1,9,-1
 448 704 l 1,10,-1
 448 576 l 1,11,-1
 320 576 l 1,12,-1
 320 448 l 1,13,-1
 448 448 l 1,14,-1
 448 320 l 1,15,-1
 0 320 l 1,4,-1
EndSplineSet
Validated: 1
EndChar

StartChar: question
Encoding: 63 63 12
Width: 320
Flags: W
LayerCount: 2
Fore
SplineSet
32 704 m 1,0,-1
 288 704 l 1,1,-1
 288 576 l 1,2,-1
 32 576 l 1,3,-1
 32 704 l 1,0,-1
32 512 m 1,4,-1
 288 512 l 1,5,-1
 288 0 l 1,6,-1
 160 0 l 1,7,-1
 160 384 l 1,8,-1
 32 384 l 1,9,-1
 32 512 l 1,4,-1
EndSplineSet
Validated: 1
EndChar

StartChar: C
Encoding: 67 67 13
Width: 544
Flags: W
LayerCount: 2
Fore
SplineSet
352 196 m 2,0,1
 350 386 350 386 32 386 c 2,2,-1
 32 514 l 1,3,4
 478 514 478 514 480 252 c 2,5,-1
 482 0 l 1,6,-1
 354 0 l 1,7,-1
 352 196 l 2,0,1
32 576 m 1,8,-1
 32 704 l 1,9,-1
 480 704 l 1,10,-1
 480 576 l 1,11,-1
 32 576 l 1,8,-1
EndSplineSet
Validated: 1
EndChar

StartChar: F
Encoding: 70 70 14
Width: 576
Flags: W
LayerCount: 2
Fore
SplineSet
32 192 m 1,0,-1
 32 320 l 1,1,-1
 544 320 l 1,2,-1
 544 192 l 1,3,-1
 32 192 l 1,0,-1
160 384 m 1,4,-1
 160 512 l 1,5,-1
 416 512 l 1,6,-1
 416 384 l 1,7,-1
 160 384 l 1,4,-1
EndSplineSet
Validated: 1
EndChar

StartChar: G
Encoding: 71 71 15
Width: 384
Flags: W
LayerCount: 2
Fore
SplineSet
224 0 m 1,0,-1
 224 256 l 1,1,-1
 352 256 l 1,2,-1
 352 0 l 1,3,-1
 224 0 l 1,0,-1
32 0 m 1,4,-1
 32 704 l 1,5,-1
 160 704 l 1,6,-1
 160 448 l 1,7,-1
 352 448 l 1,8,-1
 352 320 l 1,9,-1
 160 320 l 1,10,-1
 160 0 l 1,11,-1
 32 0 l 1,4,-1
224 512 m 1,12,-1
 224 704 l 1,13,-1
 352 704 l 1,14,-1
 352 512 l 1,15,-1
 224 512 l 1,12,-1
EndSplineSet
Validated: 1
EndChar

StartChar: H
Encoding: 72 72 16
Width: 512
Flags: W
LayerCount: 2
Fore
SplineSet
224 0 m 1,0,-1
 160 0 l 1,1,-1
 160 384 l 1,2,-1
 32 384 l 1,3,-1
 32 512 l 1,4,-1
 288 512 l 1,5,-1
 288 0 l 1,6,-1
 224 0 l 1,0,-1
352 128 m 1,7,-1
 352 320 l 1,8,-1
 480 320 l 1,9,-1
 480 128 l 1,10,-1
 352 128 l 1,7,-1
352 512 m 1,11,-1
 352 704 l 1,12,-1
 480 704 l 1,13,-1
 480 512 l 1,14,-1
 352 512 l 1,11,-1
32 576 m 1,15,-1
 32 704 l 1,16,-1
 288 704 l 1,17,-1
 288 576 l 1,18,-1
 32 576 l 1,15,-1
EndSplineSet
Validated: 1
EndChar

StartChar: K
Encoding: 75 75 17
Width: 576
Flags: W
LayerCount: 2
Fore
SplineSet
416 0 m 1,0,-1
 416 384 l 1,1,-1
 544 384 l 1,2,-1
 544 0 l 1,3,-1
 416 0 l 1,0,-1
224 0 m 1,4,-1
 224 704 l 1,5,-1
 352 704 l 1,6,-1
 352 0 l 1,7,-1
 224 0 l 1,4,-1
32 320 m 1,8,-1
 32 512 l 1,9,-1
 160 512 l 1,10,-1
 160 320 l 1,11,-1
 32 320 l 1,8,-1
416 512 m 1,12,-1
 416 704 l 1,13,-1
 544 704 l 1,14,-1
 544 512 l 1,15,-1
 416 512 l 1,12,-1
EndSplineSet
Validated: 1
EndChar

StartChar: M
Encoding: 77 77 18
Width: 576
Flags: W
LayerCount: 2
Fore
SplineSet
416 0 m 1,0,-1
 416 192 l 1,1,-1
 544 192 l 1,2,-1
 544 0 l 1,3,-1
 416 0 l 1,0,-1
32 0 m 1,4,-1
 32 128 l 1,5,-1
 224 128 l 1,6,-1
 224 704 l 1,7,-1
 352 704 l 1,8,-1
 352 0 l 1,9,-1
 32 0 l 1,4,-1
32 320 m 1,10,-1
 32 704 l 1,11,-1
 160 704 l 1,12,-1
 160 320 l 1,13,-1
 32 320 l 1,10,-1
416 512 m 1,14,-1
 416 704 l 1,15,-1
 544 704 l 1,16,-1
 544 512 l 1,17,-1
 416 512 l 1,14,-1
EndSplineSet
Validated: 1
EndChar

StartChar: R
Encoding: 82 82 19
Width: 512
Flags: W
LayerCount: 2
Fore
SplineSet
224 0 m 1,0,-1
 224 512 l 1,1,-1
 480 512 l 1,2,-1
 480 384 l 1,3,-1
 352 384 l 1,4,-1
 352 0 l 1,5,-1
 224 0 l 1,0,-1
32 128 m 1,6,-1
 32 320 l 1,7,-1
 160 320 l 1,8,-1
 160 128 l 1,9,-1
 32 128 l 1,6,-1
32 512 m 1,10,-1
 32 704 l 1,11,-1
 160 704 l 1,12,-1
 160 512 l 1,13,-1
 32 512 l 1,10,-1
224 576 m 1,14,-1
 224 704 l 1,15,-1
 480 704 l 1,16,-1
 480 576 l 1,17,-1
 224 576 l 1,14,-1
EndSplineSet
Validated: 1
EndChar

StartChar: backslash
Encoding: 92 92 20
Width: 448
Flags: W
LayerCount: 2
Fore
SplineSet
0 320 m 1,0,-1
 0 448 l 1,1,-1
 152 448 l 1,2,-1
 128 640 l 1,3,-1
 256 640 l 1,4,-1
 280 448 l 1,5,-1
 448 448 l 1,6,-1
 448 320 l 1,7,-1
 296 320 l 1,8,-1
 320 128 l 1,9,-1
 192 128 l 1,10,-1
 168 320 l 1,11,-1
 0 320 l 1,0,-1
EndSplineSet
Validated: 1
EndChar

StartChar: a
Encoding: 97 97 21
Width: 576
Flags: W
LayerCount: 2
Fore
SplineSet
30 0 m 1,0,-1
 30 128 l 1,1,-1
 158 128 l 1,2,-1
 158 572 l 2,3,4
 158 718 158 718 348 718 c 0,5,6
 542 718 542 718 542 578 c 2,7,-1
 542 512 l 1,8,-1
 414 512 l 1,9,-1
 414 536 l 2,10,11
 414 608 414 608 351 608 c 0,12,13
 350 608 350 608 349 608 c 128,-1,14
 348 608 348 608 347 608 c 128,-1,15
 346 608 346 608 345 608 c 128,-1,16
 344 608 344 608 343 608 c 128,-1,17
 342 608 342 608 341 608 c 128,-1,18
 340 608 340 608 340 608 c 0,19,20
 338 608 338 608 337 608 c 128,-1,21
 336 608 336 608 334 608 c 0,22,23
 333 608 333 608 332 608 c 0,24,25
 330.789473684 608.052631579 330.789473684 608.052631579 329.610803324 608.052631579 c 0,26,27
 286 608.052631579 286 608.052631579 286 536 c 2,28,-1
 286 0 l 1,29,-1
 30 0 l 1,0,-1
EndSplineSet
Validated: 1
EndChar

StartChar: b
Encoding: 98 98 22
Width: 512
Flags: W
LayerCount: 2
Fore
SplineSet
32 0 m 5,0,-1
 32 128 l 5,1,-1
 260 128 l 5,2,3
 32 185 32 185 32 512 c 6,4,-1
 32 704 l 5,5,-1
 160 704 l 5,6,-1
 160 512 l 6,7,8
 160 264 160 264 480 128 c 5,9,-1
 480 0 l 5,10,-1
 32 0 l 5,0,-1
EndSplineSet
Validated: 1
EndChar

StartChar: d
Encoding: 100 100 23
Width: 512
Flags: W
LayerCount: 2
Fore
SplineSet
288 0 m 1,0,-1
 96 448 l 1,1,-1
 224 448 l 1,2,-1
 416 0 l 1,3,-1
 288 0 l 1,0,-1
32 576 m 1,4,-1
 32 704 l 1,5,-1
 480 704 l 1,6,-1
 480 576 l 1,7,-1
 32 576 l 1,4,-1
EndSplineSet
Validated: 1
EndChar

StartChar: e
Encoding: 101 101 24
Width: 448
Flags: W
LayerCount: 2
Fore
SplineSet
32 0 m 1,0,-1
 32 704 l 1,1,-1
 160 704 l 1,2,-1
 160 128 l 1,3,-1
 416 128 l 1,4,-1
 416 0 l 1,5,-1
 32 0 l 1,0,-1
288 512 m 1,6,-1
 288 704 l 1,7,-1
 416 704 l 1,8,-1
 416 512 l 1,9,-1
 288 512 l 1,6,-1
EndSplineSet
Validated: 1
EndChar

StartChar: f
Encoding: 102 102 25
Width: 512
Flags: W
LayerCount: 2
Fore
SplineSet
32 192 m 1,0,-1
 32 320 l 1,1,-1
 480 320 l 1,2,-1
 480 192 l 1,3,-1
 32 192 l 1,0,-1
32 384 m 1,4,-1
 32 512 l 1,5,-1
 480 512 l 1,6,-1
 480 384 l 1,7,-1
 32 384 l 1,4,-1
EndSplineSet
Validated: 1
EndChar

StartChar: h
Encoding: 104 104 26
Width: 576
Flags: W
LayerCount: 2
Fore
SplineSet
224 0 m 1,0,-1
 224 384 l 1,1,-1
 32 384 l 1,2,-1
 32 512 l 1,3,-1
 544 512 l 1,4,-1
 544 384 l 1,5,-1
 352 384 l 1,6,-1
 352 0 l 1,7,-1
 224 0 l 1,0,-1
32 576 m 1,8,-1
 32 704 l 1,9,-1
 544 704 l 1,10,-1
 544 576 l 1,11,-1
 32 576 l 1,8,-1
EndSplineSet
Validated: 1
EndChar

StartChar: i
Encoding: 105 105 27
Width: 192
Flags: W
LayerCount: 2
Fore
SplineSet
32 0 m 1,0,-1
 32 320 l 1,1,-1
 160 320 l 1,2,-1
 160 0 l 1,3,-1
 32 0 l 1,0,-1
32 384 m 1,4,-1
 32 704 l 1,5,-1
 160 704 l 1,6,-1
 160 384 l 1,7,-1
 32 384 l 1,4,-1
EndSplineSet
Validated: 1
EndChar

StartChar: k
Encoding: 107 107 28
Width: 576
Flags: W
LayerCount: 2
Fore
SplineSet
224 0 m 1,0,-1
 224 704 l 1,1,-1
 352 704 l 1,2,-1
 352 0 l 1,3,-1
 224 0 l 1,0,-1
416 320 m 1,4,-1
 416 448 l 1,5,-1
 544 448 l 1,6,-1
 544 320 l 1,7,-1
 416 320 l 1,4,-1
32 320 m 1,8,-1
 32 448 l 1,9,-1
 160 448 l 1,10,-1
 160 320 l 1,11,-1
 32 320 l 1,8,-1
EndSplineSet
Validated: 1
EndChar

StartChar: l
Encoding: 108 108 29
Width: 384
Flags: W
LayerCount: 2
Fore
SplineSet
32 0 m 1,0,-1
 32 704 l 1,1,-1
 160 704 l 1,2,-1
 160 0 l 1,3,-1
 32 0 l 1,0,-1
224 128 m 1,4,-1
 224 320 l 1,5,-1
 352 320 l 1,6,-1
 352 128 l 1,7,-1
 224 128 l 1,4,-1
224 384 m 1,8,-1
 224 576 l 1,9,-1
 352 576 l 1,10,-1
 352 384 l 1,11,-1
 224 384 l 1,8,-1
EndSplineSet
Validated: 1
EndChar

StartChar: m
Encoding: 109 109 30
Width: 448
Flags: W
LayerCount: 2
Fore
SplineSet
32 0 m 1,0,-1
 32 128 l 1,1,-1
 288 128 l 1,2,-1
 288 704 l 1,3,-1
 416 704 l 1,4,-1
 416 0 l 1,5,-1
 32 0 l 1,0,-1
32 512 m 1,6,-1
 32 704 l 1,7,-1
 160 704 l 1,8,-1
 160 512 l 1,9,-1
 32 512 l 1,6,-1
EndSplineSet
Validated: 1
EndChar

StartChar: n
Encoding: 110 110 31
Width: 448
Flags: W
LayerCount: 2
Fore
SplineSet
32 0 m 1,0,-1
 32 128 l 1,1,-1
 120 128 l 6,2,3
 288 128 288 128 288 384 c 2,4,-1
 288 704 l 1,5,-1
 416 704 l 1,6,-1
 416 384 l 2,7,8
 416 0 416 0 146 0 c 6,9,-1
 32 0 l 1,0,-1
32 384 m 1,10,-1
 32 704 l 1,11,-1
 160 704 l 1,12,-1
 160 384 l 1,13,-1
 32 384 l 1,10,-1
EndSplineSet
Validated: 1
EndChar

StartChar: o
Encoding: 111 111 32
Width: 512
Flags: W
LayerCount: 2
Fore
SplineSet
96 0 m 1,0,-1
 96 128 l 1,1,2
 364 128 364 128 364 356 c 0,3,4
 364 357 364 357 364 358 c 0,5,6
 364 576 364 576 256 576 c 2,7,-1
 32 576 l 1,8,-1
 32 704 l 1,9,-1
 286 704 l 2,10,11
 492 704 492 704 492 353 c 0,12,13
 492 352 492 352 492 350 c 0,14,15
 492 0 492 0 126 0 c 2,16,-1
 96 0 l 1,0,-1
EndSplineSet
Validated: 1
EndChar

StartChar: p
Encoding: 112 112 33
Width: 384
Flags: W
LayerCount: 2
Fore
SplineSet
224 0 m 1,0,-1
 224 192 l 1,1,-1
 352 192 l 1,2,-1
 352 0 l 1,3,-1
 224 0 l 1,0,-1
32 0 m 1,4,-1
 32 448 l 1,5,-1
 160 448 l 1,6,-1
 160 0 l 1,7,-1
 32 0 l 1,4,-1
224 256 m 1,8,-1
 224 704 l 1,9,-1
 352 704 l 1,10,-1
 352 256 l 1,11,-1
 224 256 l 1,8,-1
32 512 m 1,12,-1
 32 704 l 1,13,-1
 160 704 l 1,14,-1
 160 512 l 1,15,-1
 32 512 l 1,12,-1
EndSplineSet
Validated: 1
EndChar

StartChar: r
Encoding: 114 114 34
Width: 384
Flags: W
LayerCount: 2
Fore
SplineSet
224 0 m 1,0,-1
 224 192 l 1,1,-1
 352 192 l 1,2,-1
 352 0 l 1,3,-1
 224 0 l 1,0,-1
32 0 m 1,4,-1
 32 192 l 1,5,-1
 160 192 l 1,6,-1
 160 0 l 1,7,-1
 32 0 l 1,4,-1
224 512 m 1,8,-1
 224 704 l 1,9,-1
 352 704 l 1,10,-1
 352 512 l 1,11,-1
 224 512 l 1,8,-1
32 512 m 1,12,-1
 32 704 l 1,13,-1
 160 704 l 1,14,-1
 160 512 l 1,15,-1
 32 512 l 1,12,-1
EndSplineSet
Validated: 1
EndChar

StartChar: s
Encoding: 115 115 35
Width: 320
Flags: W
LayerCount: 2
Fore
SplineSet
160 0 m 1,0,-1
 32 704 l 1,1,-1
 160 704 l 1,2,-1
 288 0 l 1,3,-1
 160 0 l 1,0,-1
EndSplineSet
Validated: 1
EndChar

StartChar: t
Encoding: 116 116 36
Width: 448
Flags: W
LayerCount: 2
Fore
SplineSet
288 0 m 1,0,-1
 288 192 l 1,1,-1
 416 192 l 1,2,-1
 416 0 l 1,3,-1
 288 0 l 1,0,-1
288 256 m 1,4,-1
 288 576 l 1,5,-1
 32 576 l 1,6,-1
 32 704 l 1,7,-1
 416 704 l 1,8,-1
 416 256 l 1,9,-1
 288 256 l 1,4,-1
EndSplineSet
Validated: 1
EndChar

StartChar: u
Encoding: 117 117 37
Width: 448
Flags: W
LayerCount: 2
Fore
SplineSet
32 192 m 1,0,-1
 32 320 l 1,1,-1
 416 320 l 1,2,-1
 416 192 l 1,3,-1
 32 192 l 1,0,-1
288 384 m 1,4,-1
 288 576 l 1,5,-1
 416 576 l 1,6,-1
 416 384 l 1,7,-1
 288 384 l 1,4,-1
32 384 m 1,8,-1
 32 576 l 1,9,-1
 160 576 l 1,10,-1
 160 384 l 1,11,-1
 32 384 l 1,8,-1
EndSplineSet
Validated: 1
EndChar

StartChar: v
Encoding: 118 118 38
Width: 448
Flags: W
LayerCount: 2
Fore
SplineSet
32 192 m 1,0,-1
 32 320 l 1,1,-1
 416 320 l 1,2,-1
 416 192 l 1,3,-1
 32 192 l 1,0,-1
32 384 m 1,4,-1
 32 512 l 1,5,-1
 160 512 l 1,6,-1
 160 640 l 1,7,-1
 288 640 l 1,8,-1
 288 512 l 1,9,-1
 416 512 l 1,10,-1
 416 384 l 1,11,-1
 32 384 l 1,4,-1
EndSplineSet
Validated: 1
EndChar

StartChar: w
Encoding: 119 119 39
Width: 512
Flags: W
LayerCount: 2
Fore
SplineSet
352 192 m 1,0,-1
 288 384 l 1,1,-1
 416 384 l 1,2,-1
 480 192 l 1,3,-1
 352 192 l 1,0,-1
32 192 m 1,4,-1
 96 384 l 1,5,-1
 224 384 l 1,6,-1
 160 192 l 1,7,-1
 32 192 l 1,4,-1
160 448 m 1,8,-1
 160 576 l 1,9,-1
 352 576 l 1,10,-1
 352 448 l 1,11,-1
 160 448 l 1,8,-1
EndSplineSet
Validated: 1
EndChar

StartChar: section
Encoding: 167 167 41
Width: 576
Flags: W
LayerCount: 2
Fore
SplineSet
150 539.727626459 m 1,0,-1
 150 447.301435407 l 1,1,-1
 32 484 l 1,2,-1
 32 576 l 1,3,-1
 150 539.727626459 l 1,0,-1
150 165.96124031 m 1,4,-1
 32 128 l 1,5,-1
 34 226 l 1,6,-1
 150 261.692307692 l 1,7,-1
 150 165.96124031 l 1,4,-1
222 517.595330739 m 1,8,-1
 338 481.937743191 l 1,9,-1
 338 388.832535885 l 1,10,-1
 222 424.909090909 l 1,11,-1
 222 517.595330739 l 1,8,-1
222 189.124031008 m 1,12,-1
 222 283.846153846 l 1,13,-1
 338 319.538461538 l 1,14,-1
 338 226.441860465 l 1,15,-1
 222 189.124031008 l 1,12,-1
416 457.961089494 m 1,16,-1
 546 418 l 1,17,-1
 548 294 l 1,18,-1
 416 251.534883721 l 1,19,-1
 416 343.538461538 l 1,20,-1
 450 354 l 1,21,-1
 416 364.574162679 l 1,22,-1
 416 457.961089494 l 1,16,-1
EndSplineSet
Validated: 1
EndChar

StartChar: guillemotleft
Encoding: 171 171 42
Width: 320
Flags: W
LayerCount: 2
Fore
SplineSet
32 704 m 5,0,-1
 288 704 l 5,1,-1
 288 640 l 5,2,-1
 160 640 l 5,3,-1
 160 128 l 5,4,-1
 32 128 l 5,5,-1
 32 704 l 5,0,-1
EndSplineSet
Validated: 1
EndChar

StartChar: guillemotright
Encoding: 187 187 43
Width: 320
Flags: W
LayerCount: 2
Fore
SplineSet
288 0 m 1,0,-1
 32 0 l 1,1,-1
 32 64 l 1,2,-1
 160 64 l 1,3,-1
 160 576 l 1,4,-1
 288 576 l 1,5,-1
 288 0 l 1,0,-1
EndSplineSet
Validated: 1
EndChar

StartChar: Aacute
Encoding: 193 193 44
Width: 509
Flags: W
LayerCount: 2
Fore
SplineSet
-34 0 m 1,0,-1
 -34 128 l 1,1,-1
 94 128 l 1,2,-1
 94 512 l 1,3,-1
 222 512 l 1,4,-1
 222 0 l 1,5,-1
 -34 0 l 1,0,-1
350 384 m 1,6,-1
 350 512 l 2,7,8
 350 576 350 576 286 576 c 2,9,-1
 94 576 l 1,10,-1
 95 703 l 1,11,12
 212 703 212 703 330 703 c 5,13,14
 478 703 478 703 478 546 c 2,15,-1
 478 384 l 1,16,-1
 350 384 l 1,6,-1
EndSplineSet
Validated: 1
EndChar

StartChar: Eacute
Encoding: 201 201 45
Width: 384
Flags: W
LayerCount: 2
Fore
SplineSet
32 0 m 1,0,-1
 32 448 l 1,1,-1
 160 448 l 1,2,-1
 160 128 l 1,3,-1
 352 128 l 1,4,-1
 352 0 l 1,5,-1
 32 0 l 1,0,-1
224 384 m 1,6,-1
 224 704 l 1,7,-1
 352 704 l 1,8,-1
 352 384 l 1,9,-1
 224 384 l 1,6,-1
32 512 m 1,10,-1
 32 704 l 1,11,-1
 160 704 l 1,12,-1
 160 512 l 1,13,-1
 32 512 l 1,10,-1
EndSplineSet
Validated: 1
EndChar

StartChar: agrave
Encoding: 224 224 46
Width: 512
Flags: W
LayerCount: 2
Fore
SplineSet
32 0 m 1,0,-1
 32 128 l 1,1,-1
 160 128 l 1,2,-1
 160 352 l 2,3,4
 160 353 160 353 160 354 c 128,-1,5
 159.993902439 354.963414634 159.993902439 354.963414634 159.993902439 355.920954789 c 0,6,7
 159.993902439 512 159.993902439 512 322 512 c 2,8,-1
 480 512 l 1,9,-1
 480 448 l 1,10,-1
 480 384 l 1,11,-1
 352 384 l 2,12,13
 290 384 290 384 288 320 c 2,14,-1
 288 0 l 1,15,-1
 32 0 l 1,0,-1
32 576 m 1,16,-1
 32 704 l 1,17,-1
 480 704 l 1,18,-1
 480 576 l 1,19,-1
 32 576 l 1,16,-1
EndSplineSet
Validated: 1
EndChar

StartChar: acircumflex
Encoding: 226 226 47
Width: 576
Flags: W
LayerCount: 2
Fore
SplineSet
32 0 m 1,0,-1
 32 128 l 1,1,-1
 416 128 l 1,2,-1
 416 0 l 1,3,-1
 32 0 l 1,0,-1
160 192 m 1,4,-1
 160 514 l 2,5,6
 160 658 160 658 346 658 c 0,7,8
 350 658 350 658 354 658 c 1,9,10
 544 658 544 658 544 510 c 2,11,-1
 544 448 l 1,12,-1
 416 448 l 1,13,-1
 416 478 l 2,14,15
 416 544 416 544 357 544 c 0,16,17
 356 544 356 544 354 544 c 0,18,19
 288 544 288 544 288 478 c 2,20,-1
 288 192 l 1,21,-1
 160 192 l 1,4,-1
EndSplineSet
Validated: 1
EndChar

StartChar: ae
Encoding: 230 230 48
Width: 576
Flags: W
LayerCount: 2
Fore
SplineSet
352 0 m 1,0,-1
 352 330 l 1,1,-1
 480 330 l 1,2,-1
 480 128 l 1,3,-1
 544 128 l 1,4,-1
 544 0 l 1,5,-1
 352 0 l 1,0,-1
32 0 m 1,6,-1
 32 128 l 1,7,-1
 160 128 l 1,8,-1
 160 524 l 2,9,10
 159.994752918 525.017501242 159.994752918 525.017501242 159.994752918 526.029553491 c 0,11,12
 159.994752918 714 159.994752918 714 341 714 c 2,13,-1
 480 714 l 1,14,-1
 480 458 l 1,15,-1
 352 458 l 1,16,-1
 352 586 l 1,17,18
 287.999812103 586 287.999812103 586 287.999812103 528.198249553 c 0,19,20
 287.999812103 528.099209626 287.999812103 528.099209626 288 528 c 2,21,-1
 288 0 l 1,22,-1
 32 0 l 1,6,-1
EndSplineSet
Validated: 1
EndChar

StartChar: thorn
Encoding: 254 254 49
Width: 640
Flags: W
LayerCount: 2
Fore
SplineSet
160 0 m 1,0,-1
 160 192 l 1,1,-1
 288 192 l 1,2,-1
 288 0 l 1,3,-1
 160 0 l 1,0,-1
160 256 m 1,4,-1
 160 576 l 1,5,-1
 32 576 l 1,6,-1
 32 704 l 1,7,-1
 288 704 l 1,8,-1
 288 256 l 1,9,-1
 160 256 l 1,4,-1
352 512 m 1,10,-1
 608 512 l 1,11,-1
 608 384 l 1,12,-1
 480 384 l 1,13,-1
 480 0 l 1,14,-1
 416 0 l 1,15,-1
 352 0 l 1,16,-1
 352 512 l 1,10,-1
352 704 m 1,17,-1
 608 704 l 1,18,-1
 608 576 l 1,19,-1
 352 576 l 1,20,-1
 352 704 l 1,17,-1
EndSplineSet
Validated: 1
EndChar

StartChar: blackrightpointingtriangle
Encoding: 9654 9654 50
Width: 576
Flags: W
LayerCount: 2
Fore
SplineSet
544 352 m 5,0,-1
 32 128 l 5,1,-1
 32 576 l 5,2,-1
 544 352 l 5,0,-1
EndSplineSet
Validated: 1
EndChar

StartChar: blackleftpointingtriangle
Encoding: 9664 9664 51
Width: 576
Flags: W
LayerCount: 2
Fore
SplineSet
32 352 m 5,0,-1
 544 576 l 5,1,-1
 544 128 l 5,2,-1
 32 352 l 5,0,-1
EndSplineSet
Validated: 1
EndChar

StartChar: whiterightpointingtriangle
Encoding: 9655 9655 52
Width: 576
Flags: W
LayerCount: 2
Fore
SplineSet
480 350 m 25,0,-1
 64 528 l 25,1,-1
 64 178 l 25,2,-1
 480 350 l 25,0,-1
544 352 m 1,3,-1
 32 128 l 1,4,-1
 32 576 l 1,5,-1
 544 352 l 1,3,-1
EndSplineSet
Validated: 1
EndChar

StartChar: whiteleftpointingtriangle
Encoding: 9665 9665 53
Width: 576
Flags: W
LayerCount: 2
Fore
SplineSet
98 352 m 29,0,-1
 514 178 l 25,1,-1
 514 528 l 25,2,-1
 98 352 l 29,0,-1
32 352 m 1,3,-1
 544 576 l 1,4,-1
 544 128 l 1,5,-1
 32 352 l 1,3,-1
EndSplineSet
Validated: 1
EndChar

StartChar: triagup
Encoding: 9650 9650 54
Width: 512
Flags: W
LayerCount: 2
Fore
SplineSet
258 608 m 5,0,-1
 482 96 l 5,1,-1
 34 96 l 5,2,-1
 258 608 l 5,0,-1
EndSplineSet
Validated: 1
EndChar

StartChar: triagdn
Encoding: 9660 9660 55
Width: 512
Flags: W
LayerCount: 2
Fore
SplineSet
258 96 m 5,0,-1
 34 608 l 5,1,-1
 482 608 l 5,2,-1
 258 96 l 5,0,-1
EndSplineSet
Validated: 1
EndChar

StartChar: whitedownpointingtriangle
Encoding: 9661 9661 56
Width: 512
Flags: W
LayerCount: 2
Fore
SplineSet
432 576 m 29,0,-1
 82 576 l 25,1,-1
 256 160 l 25,2,-1
 432 576 l 29,0,-1
258 96 m 1,3,-1
 34 608 l 1,4,-1
 482 608 l 1,5,-1
 258 96 l 1,3,-1
EndSplineSet
Validated: 1
EndChar

StartChar: whiteuppointingtriangle
Encoding: 9651 9651 57
Width: 512
Flags: W
LayerCount: 2
Fore
SplineSet
82 126 m 29,0,-1
 434 126 l 25,1,-1
 258 544 l 25,2,-1
 82 126 l 29,0,-1
258 608 m 1,3,-1
 482 96 l 1,4,-1
 34 96 l 1,5,-1
 258 608 l 1,3,-1
EndSplineSet
Validated: 1
EndChar

StartChar: ellipsis
Encoding: 8230 8230 58
Width: 512
Flags: W
LayerCount: 2
Fore
SplineSet
351 0 m 1,0,-1
 351 128 l 1,1,-1
 479 128 l 1,2,-1
 479 0 l 1,3,-1
 351 0 l 1,0,-1
193 0 m 1,4,-1
 193 128 l 1,5,-1
 321 128 l 1,6,-1
 321 0 l 1,7,-1
 193 0 l 1,4,-1
32 0 m 1,8,-1
 32 128 l 1,9,-1
 160 128 l 1,10,-1
 160 0 l 1,11,-1
 32 0 l 1,8,-1
EndSplineSet
Validated: 1
EndChar

StartChar: c
Encoding: 99 99 59
Width: 192
Flags: W
LayerCount: 2
Fore
SplineSet
30 258 m 1,0,-1
 30 384 l 1,1,-1
 158 384 l 1,2,-1
 158 258 l 1,3,-1
 30 258 l 1,0,-1
EndSplineSet
Validated: 1
EndChar

StartChar: A
Encoding: 65 65 66
Width: 448
Flags: W
LayerCount: 2
Fore
SplineSet
0 704 m 1,0,-1
 128 704 l 1,1,-1
 128 576 l 1,2,-1
 0 576 l 1,3,-1
 0 704 l 1,0,-1
224 704 m 1,4,-1
 352 704 l 1,5,-1
 352 576 l 1,6,-1
 224 576 l 1,7,-1
 224 704 l 1,4,-1
0 448 m 1,8,-1
 448 448 l 1,9,-1
 448 320 l 1,10,-1
 352 320 l 1,11,-1
 352 256 l 1,12,-1
 448 256 l 1,13,-1
 448 128 l 1,14,-1
 64 128 l 1,15,-1
 64 256 l 1,16,-1
 224 256 l 1,17,-1
 224 320 l 1,18,-1
 0 320 l 1,19,-1
 0 448 l 1,8,-1
EndSplineSet
Validated: 1
EndChar

StartChar: B
Encoding: 66 66 67
Width: 448
Flags: W
LayerCount: 2
Fore
SplineSet
0 704 m 1,0,-1
 224 704 l 5,1,-1
 224 576 l 5,2,-1
 0 576 l 1,3,-1
 0 704 l 1,0,-1
0 448 m 1,4,-1
 448 448 l 1,5,-1
 448 320 l 1,6,-1
 352 320 l 1,7,-1
 352 256 l 1,8,-1
 448 256 l 1,9,-1
 448 128 l 1,10,-1
 0 128 l 1,11,-1
 0 256 l 1,12,-1
 224 256 l 1,13,-1
 224 320 l 1,14,-1
 0 320 l 1,15,-1
 0 448 l 1,4,-1
EndSplineSet
Validated: 1
EndChar

StartChar: D
Encoding: 68 68 68
Width: 448
Flags: W
LayerCount: 2
Fore
SplineSet
0 704 m 1,0,-1
 448 704 l 1,1,-1
 448 576 l 1,2,-1
 0 576 l 1,3,-1
 0 704 l 1,0,-1
0 448 m 1,4,-1
 448 448 l 1,5,-1
 448 320 l 1,6,-1
 257 320 l 1,7,-1
 257 256 l 1,8,-1
 448 256 l 1,9,-1
 448 128 l 1,10,-1
 128 128 l 1,11,-1
 128 320 l 1,12,-1
 0 320 l 1,13,-1
 0 448 l 1,4,-1
EndSplineSet
Validated: 1
EndChar

StartChar: E
Encoding: 69 69 69
Width: 448
Flags: W
LayerCount: 2
Fore
SplineSet
224 704 m 1,0,-1
 352 704 l 1,1,-1
 352 576 l 1,2,-1
 224 576 l 1,3,-1
 224 704 l 1,0,-1
0 704 m 1,4,-1
 128 704 l 1,5,-1
 128 448 l 1,6,-1
 448 448 l 1,7,-1
 448 320 l 1,8,-1
 385 320 l 1,9,-1
 385 128 l 1,10,-1
 128 128 l 1,11,-1
 128 256 l 1,12,-1
 256 256 l 1,13,-1
 256 320 l 1,14,-1
 0 320 l 1,15,-1
 0 704 l 1,4,-1
EndSplineSet
Validated: 1
EndChar

StartChar: five
Encoding: 53 53 85
Width: 448
Flags: W
LayerCount: 2
Fore
SplineSet
0 128 m 1,0,-1
 0 448 l 1,1,-1
 448 448 l 1,2,-1
 448 320 l 1,3,-1
 128 320 l 1,4,-1
 128 256 l 1,5,-1
 225 256 l 1,6,-1
 225 128 l 1,7,-1
 0 128 l 1,0,-1
192 512 m 1,8,-1
 192 640 l 1,9,-1
 320 640 l 1,10,-1
 320 512 l 1,11,-1
 192 512 l 1,8,-1
EndSplineSet
Validated: 1
EndChar

StartChar: six
Encoding: 54 54 86
Width: 448
Flags: W
LayerCount: 2
Fore
SplineSet
0 128 m 1,0,-1
 0 448 l 1,1,-1
 448 448 l 1,2,-1
 448 128 l 1,3,-1
 320 128 l 1,4,-1
 320 320 l 1,5,-1
 128 320 l 1,6,-1
 128 256 l 1,7,-1
 225 256 l 1,8,-1
 225 128 l 1,9,-1
 0 128 l 1,0,-1
0 576 m 5,10,-1
 0 704 l 5,11,-1
 448 704 l 5,12,-1
 448 576 l 5,13,-1
 0 576 l 5,10,-1
EndSplineSet
Validated: 1
EndChar

StartChar: seven
Encoding: 55 55 87
Width: 448
Flags: W
LayerCount: 2
Fore
SplineSet
448 128 m 1,0,-1
 223 128 l 1,1,-1
 223 256 l 1,2,-1
 320 256 l 1,3,-1
 320 320 l 1,4,-1
 0 320 l 1,5,-1
 0 448 l 1,6,-1
 130 448 l 1,7,-1
 130 576 l 1,8,-1
 0 576 l 1,9,-1
 0 704 l 1,10,-1
 256 704 l 5,11,-1
 256 448 l 5,12,-1
 448 448 l 1,13,-1
 448 128 l 1,0,-1
EndSplineSet
Validated: 1
EndChar

StartChar: eight
Encoding: 56 56 88
Width: 448
Flags: W
LayerCount: 2
Fore
SplineSet
448 128 m 1,0,-1
 223 128 l 1,1,-1
 223 256 l 1,2,-1
 320 256 l 1,3,-1
 320 320 l 1,4,-1
 128 320 l 1,5,-1
 128 128 l 1,6,-1
 0 128 l 1,7,-1
 0 448 l 1,8,-1
 130 448 l 1,9,-1
 130 576 l 1,10,-1
 0 576 l 1,11,-1
 0 704 l 1,12,-1
 448 704 l 1,13,-1
 448 576 l 1,14,-1
 256 576 l 1,15,-1
 256 448 l 1,16,-1
 448 448 l 1,17,-1
 448 128 l 1,0,-1
EndSplineSet
Validated: 1
EndChar

StartChar: nine
Encoding: 57 57 89
Width: 448
Flags: W
LayerCount: 2
Fore
SplineSet
448 704 m 1,0,-1
 448 320 l 1,1,-1
 0 320 l 1,2,-1
 0 448 l 1,3,-1
 320 448 l 1,4,-1
 320 576 l 1,5,-1
 128 576 l 1,6,-1
 128 704 l 1,7,-1
 448 704 l 1,0,-1
224 256 m 1,8,-1
 224 128 l 1,9,-1
 0 128 l 1,10,-1
 0 256 l 1,11,-1
 224 256 l 1,8,-1
EndSplineSet
Validated: 1
EndChar

StartChar: uniE250
Encoding: 57936 57936 90
Width: 0
VWidth: 0
Flags: W
LayerCount: 2
Back
SplineSet
-425.705078125 726.056640625 m 5,0,-1
 -342.913085938 669.971679688 l 5,1,-1
 -356.038085938 650.59765625 l 5,2,3
 -216 636 -216 636 -136.064453125 567.221679688 c 4,4,5
 -56 498 -56 498 -55.3115234375 380.434570312 c 4,6,7
 -55 285 -55 285 -89.0439453125 215.061523438 c 4,8,9
 -124 145 -124 145 -192.998046875 108.47265625 c 5,10,11
 -141 87 -141 87 -122.381835938 49.97265625 c 5,12,-1
 -209 0 l 5,13,14
 -248 65 -248 65 -357.083007812 72.0908203125 c 5,15,-1
 -355.50390625 172 l 5,16,17
 -248 175 -248 175 -200.995117188 222.810546875 c 4,18,19
 -154 271 -154 271 -155.307617188 379.6171875 c 4,20,21
 -156 467 -156 467 -222.8203125 511.041015625 c 4,22,23
 -290.020507812 555.013671875 -290.020507812 555.013671875 -447.309570312 555.013671875 c 6,24,-1
 -541.572265625 555.013671875 l 5,25,-1
 -425.705078125 726.056640625 l 5,0,-1
EndSplineSet
Fore
Validated: 1
EndChar

StartChar: uniE251
Encoding: 57937 57937 91
Width: 0
VWidth: 0
Flags: W
LayerCount: 2
Back
SplineSet
-632 777 m 1,0,-1
 -568 845 l 1,1,-1
 -143 845 l 1,2,-1
 -143 777 l 1,3,-1
 -632 777 l 1,0,-1
-469.705078125 726.056640625 m 1,0,-1
 -386.913085938 669.971679688 l 1,1,-1
 -400.038085938 650.59765625 l 1,2,3
 -260 636 -260 636 -180.064453125 567.221679688 c 0,4,5
 -100 498 -100 498 -99.3115234375 380.434570312 c 0,6,7
 -99 285 -99 285 -133.043945312 215.061523438 c 0,8,9
 -168 145 -168 145 -236.998046875 108.47265625 c 1,10,11
 -185 87 -185 87 -166.381835938 49.97265625 c 1,12,-1
 -253 0 l 1,13,14
 -292 65 -292 65 -401.083007812 72.0908203125 c 1,15,-1
 -399.50390625 172 l 1,16,17
 -292 175 -292 175 -244.995117188 222.810546875 c 0,18,19
 -198 271 -198 271 -199.307617188 379.6171875 c 0,20,21
 -200 467 -200 467 -266.8203125 511.041015625 c 0,22,23
 -334.020507812 555.013671875 -334.020507812 555.013671875 -491.309570312 555.013671875 c 2,24,-1
 -585.572265625 555.013671875 l 1,25,-1
 -469.705078125 726.056640625 l 1,0,-1
EndSplineSet
Fore
Validated: 1
EndChar

StartChar: asterisk
Encoding: 42 42 137
Width: 448
Flags: W
LayerCount: 2
Fore
SplineSet
255 480 m 1,0,-1
 255 608 l 1,1,-1
 416 608 l 1,2,-1
 416 480 l 1,3,-1
 255 480 l 1,0,-1
256 320 m 1,4,-1
 256 448 l 1,5,-1
 448 448 l 1,6,-1
 448 320 l 1,7,-1
 256 320 l 1,4,-1
31 480 m 1,8,-1
 31 608 l 1,9,-1
 193 608 l 1,10,-1
 193 480 l 1,11,-1
 31 480 l 1,8,-1
31 128 m 1,12,-1
 31 256 l 1,13,-1
 417 256 l 1,14,-1
 417 128 l 1,15,-1
 31 128 l 1,12,-1
0 320 m 1,16,-1
 0 448 l 1,17,-1
 193 448 l 1,18,-1
 193 320 l 1,19,-1
 0 320 l 1,16,-1
EndSplineSet
Validated: 1
EndChar

StartChar: plus
Encoding: 43 43 138
Width: 448
Flags: W
LayerCount: 2
Fore
SplineSet
160 128 m 29,0,-1
 160 255 l 5,1,-1
 225 255 l 5,2,-1
 224 448 l 5,3,-1
 449 448 l 5,4,-1
 448 321 l 5,5,-1
 353 321 l 5,6,-1
 353 129 l 5,7,-1
 160 128 l 29,0,-1
0 320 m 29,8,-1
 0 447 l 5,9,-1
 65 447 l 5,10,-1
 64 608 l 5,11,-1
 289 608 l 5,12,-1
 288 481 l 5,13,-1
 193 481 l 5,14,-1
 193 321 l 5,15,-1
 0 320 l 29,8,-1
EndSplineSet
Validated: 1
EndChar

StartChar: slash
Encoding: 47 47 139
Width: 448
Flags: W
LayerCount: 2
Fore
SplineSet
448 320 m 5,0,-1
 256 320 l 5,1,-1
 256 608 l 5,2,-1
 384 608 l 5,3,-1
 384 448 l 5,4,-1
 448 448 l 5,5,-1
 448 320 l 5,0,-1
64 160 m 5,6,-1
 64 288 l 5,7,-1
 384 288 l 5,8,-1
 384 160 l 5,9,-1
 64 160 l 5,6,-1
0 320 m 5,10,-1
 0 448 l 5,11,-1
 64 448 l 5,12,-1
 64 608 l 5,13,-1
 191 608 l 5,14,-1
 191 320 l 5,15,-1
 0 320 l 5,10,-1
EndSplineSet
Validated: 1
EndChar

StartChar: hyphen
Encoding: 45 45 140
Width: 448
Flags: W
LayerCount: 2
Fore
SplineSet
96 640 m 25,0,-1
 353 640 l 1,1,-1
 353 448 l 1,2,-1
 448 448 l 1,3,-1
 449 320 l 1,4,-1
 224 320 l 1,5,-1
 225 511 l 1,6,-1
 96 511 l 1,7,-1
 96 640 l 25,0,-1
0 448 m 1,8,-1
 193 448 l 1,9,-1
 193 320 l 1,10,-1
 0 320 l 1,11,-1
 0 448 l 1,8,-1
EndSplineSet
Validated: 1
EndChar

StartChar: equal
Encoding: 61 61 141
Width: 448
Flags: W
LayerCount: 2
Fore
SplineSet
64 160 m 1,0,-1
 64 288 l 1,1,-1
 384 288 l 1,2,-1
 384 160 l 1,3,-1
 64 160 l 1,0,-1
0 320 m 1,4,-1
 0 448 l 1,5,-1
 64 448 l 1,6,-1
 64 608 l 1,7,-1
 384 608 l 1,8,-1
 384 448 l 1,9,-1
 448 448 l 1,10,-1
 448 320 l 1,11,-1
 256 320 l 1,12,-1
 256 480 l 1,13,-1
 191 480 l 1,14,-1
 191 320 l 1,15,-1
 0 320 l 1,4,-1
EndSplineSet
Validated: 1
EndChar

StartChar: Ccedilla
Encoding: 199 199 142
Width: 448
Flags: W
LayerCount: 2
Fore
SplineSet
0 704 m 1,0,-1
 448 704 l 1,1,-1
 448 575 l 1,2,-1
 192 575 l 1,3,-1
 192 448 l 1,4,-1
 448 448 l 1,5,-1
 448 320 l 1,6,-1
 385 320 l 1,7,-1
 385 255 l 1,8,-1
 448 255 l 1,9,-1
 448 128 l 1,10,-1
 0 128 l 1,11,-1
 0 256 l 1,12,-1
 256 256 l 1,13,-1
 256 320 l 1,14,-1
 0 320 l 1,15,-1
 0 448 l 1,16,-1
 64 448 l 1,17,-1
 64 577 l 1,18,-1
 0 577 l 1,19,-1
 0 704 l 1,0,-1
EndSplineSet
Validated: 1
EndChar

StartChar: ccedilla
Encoding: 231 231 143
Width: 448
Flags: W
LayerCount: 2
Fore
SplineSet
0 704 m 1,0,-1
 128 704 l 1,1,-1
 128 576 l 1,2,-1
 0 576 l 1,3,-1
 0 704 l 1,0,-1
224 704 m 1,4,-1
 448 704 l 1,5,-1
 448 576 l 1,6,-1
 224 576 l 1,7,-1
 224 704 l 1,4,-1
0 448 m 1,8,-1
 448 448 l 1,9,-1
 448 320 l 1,10,-1
 128 320 l 1,11,-1
 128 256 l 1,12,-1
 448 256 l 1,13,-1
 448 128 l 1,14,-1
 0 128 l 1,15,-1
 0 448 l 1,8,-1
EndSplineSet
Validated: 1
EndChar

StartChar: parenleft
Encoding: 40 40 155
Width: 320
Flags: W
LayerCount: 2
Fore
SplineSet
32 704 m 5,0,-1
 288 704 l 5,1,-1
 288 640 l 5,2,-1
 160 640 l 5,3,-1
 160 63 l 5,4,-1
 288 63 l 5,5,-1
 288 0 l 5,6,-1
 32 0 l 5,7,-1
 32 704 l 5,0,-1
EndSplineSet
Validated: 1
EndChar

StartChar: parenright
Encoding: 41 41 156
Width: 320
Flags: W
LayerCount: 2
Fore
SplineSet
288 704 m 1,0,-1
 288 0 l 1,1,-1
 32 0 l 1,2,-1
 32 63 l 1,3,-1
 160 63 l 1,4,-1
 160 640 l 1,5,-1
 32 640 l 1,6,-1
 32 704 l 1,7,-1
 288 704 l 1,0,-1
EndSplineSet
Validated: 1
EndChar

StartChar: colon
Encoding: 58 58 157
Width: 224
Flags: W
LayerCount: 2
Fore
SplineSet
65 160 m 1,0,-1
 34 288 l 1,1,-1
 34 351 l 1,2,-1
 65 479 l 1,3,-1
 192 479 l 1,4,-1
 161 351 l 1,5,-1
 161 288 l 1,6,-1
 192 160 l 1,7,-1
 65 160 l 1,0,-1
EndSplineSet
Validated: 1
EndChar

StartChar: uniE171
Encoding: 57713 57713 169
Width: 598
VWidth: 0
Flags: W
LayerCount: 2
Fore
SplineSet
32 702 m 1,0,-1
 545 702 l 5,1,-1
 545 -4 l 1,2,3
 437.529411765 40.5235294118 437.529411765 40.5235294118 321.677923875 40.5235294118 c 0,4,5
 211.152941176 40.5235294118 211.152941176 40.5235294118 93 0 c 1,6,-1
 67 98 l 1,7,8
 194.940503942 156.893247846 194.940503942 156.893247846 312.799739272 156.893247846 c 0,9,10
 369.047958509 156.893247846 369.047958509 156.893247846 423 143.479324425 c 1,11,-1
 423 606 l 1,12,-1
 158 606 l 1,13,-1
 228 510 l 1,14,-1
 102 510 l 1,15,-1
 32 606 l 1,16,-1
 32 702 l 1,0,-1
EndSplineSet
Validated: 1
EndChar

StartChar: uniE172
Encoding: 57714 57714 170
Width: 598
VWidth: 0
Flags: W
LayerCount: 2
Fore
SplineSet
32 702 m 1,0,-1
 544 702 l 1,1,-1
 544 606 l 1,2,-1
 32 606 l 1,3,-1
 32 702 l 1,0,-1
EndSplineSet
Validated: 1
EndChar

StartChar: uniE173
Encoding: 57715 57715 171
Width: 598
VWidth: 0
Flags: W
LayerCount: 2
Fore
SplineSet
32 702 m 1,0,-1
 544 702 l 1,1,-1
 544 606 l 1,2,-1
 32 606 l 1,3,-1
 32 702 l 1,0,-1
EndSplineSet
Validated: 1
EndChar

StartChar: uniE176
Encoding: 57718 57718 172
Width: 598
VWidth: 0
Flags: W
LayerCount: 2
Fore
SplineSet
32 702 m 1,0,-1
 544 702 l 1,1,-1
 544 606 l 1,2,-1
 32 606 l 1,3,-1
 32 702 l 1,0,-1
EndSplineSet
Validated: 1
EndChar

StartChar: uniE177
Encoding: 57719 57719 173
Width: 598
VWidth: 0
Flags: W
LayerCount: 2
Fore
SplineSet
32 702 m 1,0,-1
 544 702 l 1,1,-1
 544 606 l 1,2,-1
 32 606 l 1,3,-1
 32 702 l 1,0,-1
EndSplineSet
Validated: 1
EndChar

StartChar: uniE178
Encoding: 57720 57720 174
Width: 598
VWidth: 0
Flags: W
LayerCount: 2
Fore
SplineSet
32 702 m 1,0,-1
 544 702 l 1,1,-1
 544 606 l 1,2,-1
 32 606 l 1,3,-1
 32 702 l 1,0,-1
EndSplineSet
Validated: 1
EndChar

StartChar: uniE1BC
Encoding: 57788 57788 175
Width: 0
VWidth: 0
Flags: W
LayerCount: 2
Fore
SplineSet
-588 777 m 1,0,-1
 -524 845 l 1,1,-1
 -148 845 l 5,2,-1
 -118 777 l 5,3,-1
 -588 777 l 1,0,-1
EndSplineSet
Validated: 1
EndChar

StartChar: uniE1BD
Encoding: 57789 57789 176
Width: 0
VWidth: 0
Flags: W
LayerCount: 2
Fore
SplineSet
-209 777 m 1,0,-1
 -182 845 l 1,1,-1
 -92 845 l 1,2,-1
 -12 771 l 1,3,-1
 18 830 l 1,4,-1
 60 778 l 1,5,-1
 -3 677 l 1,6,-1
 -122 777 l 1,7,-1
 -209 777 l 1,0,-1
EndSplineSet
Validated: 1
EndChar

StartChar: uniE189
Encoding: 57737 57737 177
Width: 598
VWidth: 0
Flags: W
LayerCount: 2
Fore
SplineSet
32 702 m 1,0,-1
 545 702 l 1,1,-1
 545 -4 l 1,2,3
 437.529411765 40.5235294118 437.529411765 40.5235294118 321.677923875 40.5235294118 c 0,4,5
 211.152941176 40.5235294118 211.152941176 40.5235294118 93 0 c 1,6,-1
 67 98 l 1,7,8
 194.940503942 156.893247846 194.940503942 156.893247846 312.799739272 156.893247846 c 0,9,10
 369.047958509 156.893247846 369.047958509 156.893247846 423 143.479324425 c 1,11,-1
 423 606 l 1,12,-1
 193.831791251 606 l 1,13,14
 200.326508594 576.487160639 200.326508594 576.487160639 200.326508594 548.090725173 c 0,15,16
 200.326508594 453.329110846 200.326508594 453.329110846 128 371 c 1,17,-1
 34 371 l 1,18,19
 95.4659762029 476.858070127 95.4659762029 476.858070127 95.4659762029 573.241822932 c 0,20,21
 95.4659762029 589.760046646 95.4659762029 589.760046646 93.6606578103 606 c 1,22,-1
 32 606 l 1,23,-1
 32 702 l 1,0,-1
EndSplineSet
Validated: 1
EndChar

StartChar: uniE1A8
Encoding: 57768 57768 178
Width: 598
VWidth: 0
Flags: W
LayerCount: 2
Fore
SplineSet
355.4453125 452.892578125 m 1,0,-1
 412.592773438 518.499023438 l 1,1,-1
 518 422 l 1,2,-1
 460.852539062 356.393554688 l 1,3,-1
 355.4453125 452.892578125 l 1,0,-1
230.592773438 378.499023438 m 1,4,-1
 295.5625 452.077148438 l 1,5,-1
 414.969726562 345.578125 l 1,6,-1
 350 272 l 1,7,-1
 230.592773438 378.499023438 l 1,4,-1
32 702 m 1,8,-1
 154 702 l 1,9,-1
 154 143.479492188 l 1,10,11
 207.951893925 156.893324722 207.951893925 156.893324722 264.199953035 156.893324722 c 0,12,13
 382.059329052 156.893324722 382.059329052 156.893324722 510 98 c 1,14,-1
 484 0 l 1,15,16
 365.847058824 40.5235294118 365.847058824 40.5235294118 255.322076125 40.5235294118 c 0,17,18
 139.470588235 40.5235294118 139.470588235 40.5235294118 32 -4 c 1,19,-1
 32 702 l 1,8,-1
EndSplineSet
Validated: 1
EndChar

StartChar: uniE17D
Encoding: 57725 57725 179
Width: 598
VWidth: 0
Flags: W
LayerCount: 2
Fore
SplineSet
32 702 m 1,0,-1
 544 702 l 1,1,-1
 544 606 l 1,2,-1
 32 606 l 1,3,-1
 32 702 l 1,0,-1
EndSplineSet
Validated: 1
EndChar

StartChar: uniE180
Encoding: 57728 57728 180
Width: 598
VWidth: 0
Flags: W
LayerCount: 2
Fore
SplineSet
32 702 m 1,0,-1
 544 702 l 1,1,-1
 544 606 l 1,2,-1
 32 606 l 1,3,-1
 32 702 l 1,0,-1
EndSplineSet
Validated: 1
EndChar

StartChar: uniE182
Encoding: 57730 57730 181
Width: 598
VWidth: 0
Flags: W
LayerCount: 2
Fore
SplineSet
32 702 m 1,0,-1
 544 702 l 1,1,-1
 544 606 l 1,2,-1
 32 606 l 1,3,-1
 32 702 l 1,0,-1
EndSplineSet
Validated: 1
EndChar

StartChar: uniE183
Encoding: 57731 57731 182
Width: 598
VWidth: 0
Flags: W
LayerCount: 2
Fore
SplineSet
32 702 m 1,0,-1
 544 702 l 1,1,-1
 544 606 l 1,2,-1
 32 606 l 1,3,-1
 32 702 l 1,0,-1
EndSplineSet
Validated: 1
EndChar

StartChar: uniE184
Encoding: 57732 57732 183
Width: 598
VWidth: 0
Flags: W
LayerCount: 2
Fore
SplineSet
32 702 m 1,0,-1
 544 702 l 1,1,-1
 544 606 l 1,2,-1
 32 606 l 1,3,-1
 32 702 l 1,0,-1
EndSplineSet
Validated: 1
EndChar

StartChar: uniE185
Encoding: 57733 57733 184
Width: 598
VWidth: 0
Flags: W
LayerCount: 2
Fore
SplineSet
32 702 m 1,0,-1
 544 702 l 1,1,-1
 544 606 l 1,2,-1
 32 606 l 1,3,-1
 32 702 l 1,0,-1
EndSplineSet
Validated: 1
EndChar

StartChar: uniE188
Encoding: 57736 57736 185
Width: 598
VWidth: 0
Flags: W
LayerCount: 2
Fore
SplineSet
32 702 m 1,0,-1
 544 702 l 1,1,-1
 544 606 l 1,2,-1
 32 606 l 1,3,-1
 32 702 l 1,0,-1
EndSplineSet
Validated: 1
EndChar

StartChar: uniE18E
Encoding: 57742 57742 186
Width: 598
VWidth: 0
Flags: W
LayerCount: 2
Fore
SplineSet
32 702 m 1,0,-1
 544 702 l 1,1,-1
 544 606 l 1,2,-1
 32 606 l 1,3,-1
 32 702 l 1,0,-1
EndSplineSet
Validated: 1
EndChar

StartChar: uniE190
Encoding: 57744 57744 187
Width: 598
VWidth: 0
Flags: W
LayerCount: 2
Fore
SplineSet
32 702 m 1,0,-1
 544 702 l 1,1,-1
 544 606 l 1,2,-1
 32 606 l 1,3,-1
 32 702 l 1,0,-1
EndSplineSet
Validated: 1
EndChar

StartChar: uniE191
Encoding: 57745 57745 188
Width: 598
VWidth: 0
Flags: W
LayerCount: 2
Fore
SplineSet
32 702 m 1,0,-1
 544 702 l 1,1,-1
 544 606 l 1,2,-1
 32 606 l 1,3,-1
 32 702 l 1,0,-1
EndSplineSet
Validated: 1
EndChar

StartChar: uniE19F
Encoding: 57759 57759 189
Width: 598
VWidth: 0
Flags: W
LayerCount: 2
Fore
SplineSet
32 702 m 1,0,-1
 544 702 l 1,1,-1
 544 606 l 1,2,-1
 32 606 l 1,3,-1
 32 702 l 1,0,-1
EndSplineSet
Validated: 1
EndChar

StartChar: uniE19D
Encoding: 57757 57757 190
Width: 598
VWidth: 0
Flags: W
LayerCount: 2
Fore
SplineSet
32 702 m 1,0,-1
 544 702 l 1,1,-1
 544 606 l 1,2,-1
 32 606 l 1,3,-1
 32 702 l 1,0,-1
EndSplineSet
Validated: 1
EndChar

StartChar: grave
Encoding: 96 96 191
Width: 192
Flags: W
LayerCount: 2
Fore
SplineSet
98 478 m 0,0,1
 98.0571428571 480.8 98.0571428571 480.8 98.0571428571 483.624489796 c 0,2,3
 98.0571428571 579.657142857 98.0571428571 579.657142857 32 704 c 8,4,-1
 160 704 l 1,5,-1
 160 478 l 1,6,-1
 98 478 l 0,0,1
EndSplineSet
Validated: 1
EndChar

StartChar: uniE160
Encoding: 57696 57696 193
Width: 564
Flags: W
LayerCount: 2
Fore
SplineSet
405 0 m 1,0,-1
 405 192 l 1,1,-1
 533 192 l 1,2,-1
 533 0 l 1,3,-1
 405 0 l 1,0,-1
405 512 m 1,4,-1
 405 704 l 1,5,-1
 533 704 l 1,6,-1
 533 512 l 1,7,-1
 405 512 l 1,4,-1
224 0 m 1,8,-1
 224 192 l 1,9,-1
 352 192 l 1,10,-1
 352 0 l 1,11,-1
 224 0 l 1,8,-1
32 0 m 1,12,-1
 32 192 l 1,13,-1
 160 192 l 1,14,-1
 160 0 l 1,15,-1
 32 0 l 1,12,-1
224 512 m 1,16,-1
 224 704 l 1,17,-1
 352 704 l 1,18,-1
 352 512 l 1,19,-1
 224 512 l 1,16,-1
32 512 m 1,20,-1
 32 704 l 1,21,-1
 160 704 l 1,22,-1
 160 512 l 1,23,-1
 32 512 l 1,20,-1
EndSplineSet
Validated: 2049
LCarets2: 1 0
Ligature2: "'liga' Standard Ligatures in Latin lookup 0-1" uniE138 uniE138
Ligature2: "'liga' Standard Ligatures in Latin lookup 0-1" r r
EndChar

StartChar: uni732B
Encoding: 29483 29483 195
Width: 730
VWidth: 0
Flags: W
LayerCount: 2
Fore
SplineSet
662.505859375 618.275390625 m 4,0,1
 670.459018065 604.284236559 670.459018065 604.284236559 670.459018065 584.289054516 c 0,2,3
 670.459018065 576.847447168 670.459018065 576.847447168 669.357421875 568.57421875 c 4,4,5
 665.090820312 537.60546875 665.090820312 537.60546875 642 526 c 4,6,7
 631.042425823 520.405438209 631.042425823 520.405438209 619.29535403 520.405438209 c 0,8,9
 605.874367575 520.405438209 605.874367575 520.405438209 591.422851562 527.708007812 c 4,10,11
 564.3203125 541.400390625 564.3203125 541.400390625 547.153320312 573.370117188 c 4,12,13
 538.046524777 590.700743622 538.046524777 590.700743622 538.046524777 607.048534618 c 0,14,15
 538.046524777 615.182043522 538.046524777 615.182043522 540.30078125 623.072265625 c 4,16,17
 547.73828125 647.631835938 547.73828125 647.631835938 570.24609375 659.545898438 c 4,18,19
 581.007158592 665.069216393 581.007158592 665.069216393 592.73239312 665.069216393 c 0,20,21
 606.147716702 665.069216393 606.147716702 665.069216393 620.825195312 657.838867188 c 4,22,23
 648.508789062 643.836914062 648.508789062 643.836914062 662.505859375 618.275390625 c 4,0,1
458.2578125 616.221679688 m 4,24,25
 458.417634709 614.183140244 458.417634709 614.183140244 458.417634709 612.117069336 c 0,26,27
 458.417634709 591.661345982 458.417634709 591.661345982 442.750976562 568.506835938 c 4,28,29
 426 543 426 543 399.567382812 542.123046875 c 4,30,31
 399.425079144 542.122411703 399.425079144 542.122411703 399.283051622 542.122411703 c 0,32,33
 371.911191905 542.122411703 371.911191905 542.122411703 354.795898438 565.713867188 c 4,34,35
 336 592 336 592 334.868164062 626.110351562 c 4,36,37
 334.824450998 627.615329895 334.824450998 627.615329895 334.824450998 629.089724433 c 0,38,39
 334.824450998 656.89756835 334.824450998 656.89756835 350.374023438 673.826171875 c 4,40,41
 368 693 368 693 393.2265625 693.591796875 c 4,42,43
 393.657597823 693.59862367 393.657597823 693.59862367 394.086738666 693.59862367 c 0,44,45
 419.317756262 693.59862367 419.317756262 693.59862367 438 670 c 4,46,47
 457 645 457 645 458.2578125 616.221679688 c 4,24,25
268.890625 578.399414062 m 4,48,49
 283 561 283 561 283.904296875 530.52734375 c 4,50,51
 283.958631663 528.963935296 283.958631663 528.963935296 283.958631663 527.441168667 c 0,52,53
 283.958631663 498.256165473 283.958631663 498.256165473 264 484 c 4,54,55
 250.70900452 473.873527253 250.70900452 473.873527253 234.150483763 473.873527253 c 0,56,57
 224.546258741 473.873527253 224.546258741 473.873527253 213.842773438 477.280273438 c 4,58,59
 185 486 185 486 162.6015625 514.954101562 c 4,60,61
 147.256173969 535.045969292 147.256173969 535.045969292 147.256173969 556.49096865 c 0,62,63
 147.256173969 559.643945142 147.256173969 559.643945142 147.587890625 562.826171875 c 4,64,65
 151 588 151 588 171.057617188 603.768554688 c 4,66,67
 184.492337079 613.539658728 184.492337079 613.539658728 201.332254377 613.539658728 c 0,68,69
 210.742828152 613.539658728 210.742828152 613.539658728 221.216796875 610.48828125 c 4,70,71
 251 601 251 601 268.890625 578.399414062 c 4,48,49
151.0859375 394.291015625 m 4,72,73
 157.172060341 357.153950658 157.172060341 357.153950658 157.172060341 345.574789856 c 0,74,75
 157.172060341 342.097040918 157.172060341 342.097040918 156.623046875 340.924804688 c 4,76,77
 146 312 146 312 120 306 c 4,78,79
 113.667430142 304.592762254 113.667430142 304.592762254 107.623710389 304.592762254 c 0,80,81
 87.8989922126 304.592762254 87.8989922126 304.592762254 71.2509765625 319.58203125 c 4,82,83
 33 354 33 354 30.787109375 364.216796875 c 4,84,85
 29.3581476069 372.808640848 29.3581476069 372.808640848 29.3581476069 381.382559712 c 0,86,87
 29.3581476069 401.531793764 29.3581476069 401.531793764 37.25 421.58203125 c 4,88,89
 49 450 49 450 73.873046875 456.506835938 c 4,90,91
 80.0139390062 458.093730294 80.0139390062 458.093730294 86.0650047275 458.093730294 c 0,92,93
 104.773345536 458.093730294 104.773345536 458.093730294 122.623046875 442.924804688 c 4,94,95
 147 423 147 423 151.0859375 394.291015625 c 4,72,73
165.002929688 179.561523438 m 4,96,97
 163.531956234 190.038797393 163.531956234 190.038797393 163.531956234 200.618887928 c 0,98,99
 163.531956234 263.095436386 163.531956234 263.095436386 214.825195312 329.157226562 c 4,100,101
 274.8046875 406.407226562 274.8046875 406.407226562 369.2734375 443.57421875 c 4,102,103
 418.734757155 463.209255253 418.734757155 463.209255253 468.778775079 463.209255253 c 0,104,105
 514.455750407 463.209255253 514.455750407 463.209255253 560.618164062 446.8515625 c 4,106,107
 657.485351562 412.088867188 657.485351562 412.088867188 686.342773438 331.83203125 c 4,108,109
 696.715520991 302.408733779 696.715520991 302.408733779 696.715520991 274.132108257 c 0,110,111
 696.715520991 218.782366852 696.715520991 218.782366852 656.971679688 167.826171875 c 4,112,113
 589.9296875 82.1826171875 589.9296875 82.1826171875 486.19140625 53.994140625 c 4,114,115
 438.568106643 40.8433264243 438.568106643 40.8433264243 393.270931609 40.8433264243 c 0,116,117
 331.75350221 40.8433264243 331.75350221 40.8433264243 274.526367188 65.0986328125 c 4,118,119
 175.161132812 107.21484375 175.161132812 107.21484375 165.002929688 179.561523438 c 4,96,97
EndSplineSet
Validated: 1025
EndChar

StartChar: uniE1E9
Encoding: 57833 57833 205
Width: 644
VWidth: 0
Flags: W
LayerCount: 2
Fore
SplineSet
57.7431640625 356.256835938 m 1,0,-1
 342 640.513671875 l 1,1,-1
 626.256835938 356.256835938 l 1,2,-1
 342 72 l 1,3,-1
 57.7431640625 356.256835938 l 1,0,-1
EndSplineSet
Validated: 1
EndChar

StartChar: uniE1EA
Encoding: 57834 57834 206
Width: 644
VWidth: 0
Flags: W
LayerCount: 2
Fore
SplineSet
136.743164062 356.256835938 m 1,0,-1
 342 148 l 5,1,-1
 544.256835938 356.256835938 l 1,2,-1
 342 564.513671875 l 1,3,-1
 136.743164062 356.256835938 l 1,0,-1
57.7431640625 356.256835938 m 1,4,-1
 342 640.513671875 l 1,5,-1
 626.256835938 356.256835938 l 1,6,-1
 342 72 l 1,7,-1
 57.7431640625 356.256835938 l 1,4,-1
EndSplineSet
Validated: 1
EndChar
